<?xml version="1.0" encoding="UTF-8" standalone="no"?>
<!DOCTYPE svg PUBLIC "-//W3C//DTD SVG 1.1//EN"
 "http://www.w3.org/Graphics/SVG/1.1/DTD/svg11.dtd">
<!-- Generated by graphviz version 2.43.0 (0)
 -->
<!-- Title: %3 Pages: 1 -->
<svg width="985pt" height="692pt"
 viewBox="0.00 0.00 985.28 692.00" xmlns="http://www.w3.org/2000/svg" xmlns:xlink="http://www.w3.org/1999/xlink">
<g id="graph0" class="graph" transform="scale(1 1) rotate(0) translate(4 688)">
<title>%3</title>
<!-- across&#45;autoconfigure -->
<g id="node1" class="node">
<title>across&#45;autoconfigure</title>
<g id="a_node1"><a xlink:href="https://foreach-across.github.io/modules/across-autoconfigure/" xlink:title="across&#45;autoconfigure">
<ellipse fill="none" stroke="black" cx="408.54" cy="-162" rx="107.48" ry="18"/>
<text text-anchor="middle" x="408.54" y="-158.3" font-family="Times,serif" font-size="14.00">across&#45;autoconfigure</text>
</a>
</g>
</g>
<!-- across&#45;web -->
<g id="node2" class="node">
<title>across&#45;web</title>
<g id="a_node2"><a xlink:href="https://foreach-across.github.io/modules/across-web/" xlink:title="across&#45;web">
<ellipse fill="none" stroke="black" cx="501.54" cy="-90" rx="62.29" ry="18"/>
<text text-anchor="middle" x="501.54" y="-86.3" font-family="Times,serif" font-size="14.00">across&#45;web</text>
</a>
</g>
</g>
<!-- across&#45;autoconfigure&#45;&gt;across&#45;web -->
<g id="edge1" class="edge">
<title>across&#45;autoconfigure&#45;&gt;across&#45;web</title>
<path fill="none" stroke="black" d="M431.06,-144.05C443.31,-134.83 458.64,-123.29 471.86,-113.34"/>
<polygon fill="black" stroke="black" points="474.31,-115.88 480.2,-107.07 470.1,-110.29 474.31,-115.88"/>
</g>
<!-- across&#45;core -->
<g id="node3" class="node">
<title>across&#45;core</title>
<g id="a_node3"><a xlink:href="https://foreach-across.github.io/modules/across-core/" xlink:title="across&#45;core">
<ellipse fill="none" stroke="black" cx="501.54" cy="-18" rx="63.89" ry="18"/>
<text text-anchor="middle" x="501.54" y="-14.3" font-family="Times,serif" font-size="14.00">across&#45;core</text>
</a>
</g>
</g>
<!-- across&#45;web&#45;&gt;across&#45;core -->
<g id="edge2" class="edge">
<title>across&#45;web&#45;&gt;across&#45;core</title>
<path fill="none" stroke="black" d="M501.54,-71.7C501.54,-63.98 501.54,-54.71 501.54,-46.11"/>
<polygon fill="black" stroke="black" points="505.04,-46.1 501.54,-36.1 498.04,-46.1 505.04,-46.1"/>
</g>
<!-- debug&#45;web&#45;module -->
<g id="node4" class="node">
<title>debug&#45;web&#45;module</title>
<g id="a_node4"><a xlink:href="https://foreach-across.github.io/modules/debug-web-module/" xlink:title="debug&#45;web&#45;module">
<ellipse fill="none" stroke="orange" cx="362.54" cy="-450" rx="98.58" ry="18"/>
<text text-anchor="middle" x="362.54" y="-446.3" font-family="Times,serif" font-size="14.00">debug&#45;web&#45;module</text>
</a>
</g>
</g>
<!-- spring&#45;security&#45;module -->
<g id="node5" class="node">
<title>spring&#45;security&#45;module</title>
<g id="a_node5"><a xlink:href="https://foreach-across.github.io/modules/spring-security-module/" xlink:title="spring&#45;security&#45;module">
<ellipse fill="none" stroke="orange" cx="425.54" cy="-306" rx="118.08" ry="18"/>
<text text-anchor="middle" x="425.54" y="-302.3" font-family="Times,serif" font-size="14.00">spring&#45;security&#45;module</text>
</a>
</g>
</g>
<!-- debug&#45;web&#45;module&#45;&gt;spring&#45;security&#45;module -->
<g id="edge3" class="edge">
<title>debug&#45;web&#45;module&#45;&gt;spring&#45;security&#45;module</title>
<path fill="none" stroke="black" d="M370.14,-431.87C380.97,-407.46 400.95,-362.43 413.73,-333.64"/>
<polygon fill="black" stroke="black" points="417.06,-334.75 417.92,-324.19 410.66,-331.91 417.06,-334.75"/>
</g>
<!-- across&#45;hibernate&#45;module -->
<g id="node7" class="node">
<title>across&#45;hibernate&#45;module</title>
<g id="a_node7"><a xlink:href="https://foreach-across.github.io/modules/across-hibernate-module/" xlink:title="across&#45;hibernate&#45;module">
<ellipse fill="none" stroke="orange" cx="425.54" cy="-234" rx="125.38" ry="18"/>
<text text-anchor="middle" x="425.54" y="-230.3" font-family="Times,serif" font-size="14.00">across&#45;hibernate&#45;module</text>
</a>
</g>
</g>
<!-- spring&#45;security&#45;module&#45;&gt;across&#45;hibernate&#45;module -->
<g id="edge5" class="edge">
<title>spring&#45;security&#45;module&#45;&gt;across&#45;hibernate&#45;module</title>
<path fill="none" stroke="black" d="M425.54,-287.7C425.54,-279.98 425.54,-270.71 425.54,-262.11"/>
<polygon fill="black" stroke="black" points="429.04,-262.1 425.54,-252.1 422.04,-262.1 429.04,-262.1"/>
</g>
<!-- across&#45;test -->
<g id="node6" class="node">
<title>across&#45;test</title>
<g id="a_node6"><a xlink:href="https://foreach-across.github.io/modules/across-test/" xlink:title="across&#45;test">
<ellipse fill="none" stroke="black" cx="595.54" cy="-162" rx="61.99" ry="18"/>
<text text-anchor="middle" x="595.54" y="-158.3" font-family="Times,serif" font-size="14.00">across&#45;test</text>
</a>
</g>
</g>
<!-- across&#45;test&#45;&gt;across&#45;web -->
<g id="edge4" class="edge">
<title>across&#45;test&#45;&gt;across&#45;web</title>
<path fill="none" stroke="black" d="M573.74,-144.76C561.17,-135.4 545.17,-123.49 531.44,-113.26"/>
<polygon fill="black" stroke="black" points="533.34,-110.31 523.23,-107.15 529.16,-115.93 533.34,-110.31"/>
</g>
<!-- across&#45;hibernate&#45;module&#45;&gt;across&#45;autoconfigure -->
<g id="edge6" class="edge">
<title>across&#45;hibernate&#45;module&#45;&gt;across&#45;autoconfigure</title>
<path fill="none" stroke="black" d="M421.34,-215.7C419.45,-207.9 417.17,-198.51 415.06,-189.83"/>
<polygon fill="black" stroke="black" points="418.46,-189 412.7,-180.1 411.66,-190.65 418.46,-189"/>
</g>
<!-- across&#45;hibernate&#45;module&#45;&gt;across&#45;test -->
<g id="edge7" class="edge">
<title>across&#45;hibernate&#45;module&#45;&gt;across&#45;test</title>
<path fill="none" stroke="black" d="M464.97,-216.76C491,-206.05 525.13,-191.99 551.97,-180.94"/>
<polygon fill="black" stroke="black" points="553.58,-184.06 561.5,-177.02 550.92,-177.59 553.58,-184.06"/>
</g>
<!-- ehcache&#45;module -->
<g id="node8" class="node">
<title>ehcache&#45;module</title>
<g id="a_node8"><a xlink:href="https://foreach-across.github.io/modules/ehcache-module/" xlink:title="ehcache&#45;module">
<ellipse fill="none" stroke="orange" cx="268.54" cy="-522" rx="85.29" ry="18"/>
<text text-anchor="middle" x="268.54" y="-518.3" font-family="Times,serif" font-size="14.00">ehcache&#45;module</text>
</a>
</g>
</g>
<!-- ehcache&#45;module&#45;&gt;debug&#45;web&#45;module -->
<g id="edge8" class="edge">
<title>ehcache&#45;module&#45;&gt;debug&#45;web&#45;module</title>
<path fill="none" stroke="black" d="M290.82,-504.41C303.14,-495.24 318.63,-483.7 332.05,-473.71"/>
<polygon fill="black" stroke="black" points="334.17,-476.49 340.1,-467.71 329.99,-470.88 334.17,-476.49"/>
</g>
<!-- logging&#45;module -->
<g id="node9" class="node">
<title>logging&#45;module</title>
<g id="a_node9"><a xlink:href="https://foreach-across.github.io/modules/logging-module/" xlink:title="logging&#45;module">
<ellipse fill="none" stroke="orange" cx="82.54" cy="-522" rx="82.59" ry="18"/>
<text text-anchor="middle" x="82.54" y="-518.3" font-family="Times,serif" font-size="14.00">logging&#45;module</text>
</a>
</g>
</g>
<!-- logging&#45;module&#45;&gt;debug&#45;web&#45;module -->
<g id="edge9" class="edge">
<title>logging&#45;module&#45;&gt;debug&#45;web&#45;module</title>
<path fill="none" stroke="black" d="M134.55,-508C180.42,-496.53 247.48,-479.77 297,-467.39"/>
<polygon fill="black" stroke="black" points="298.12,-470.71 306.98,-464.89 296.42,-463.92 298.12,-470.71"/>
</g>
<!-- application&#45;info&#45;module -->
<g id="node10" class="node">
<title>application&#45;info&#45;module</title>
<g id="a_node10"><a xlink:href="https://foreach-across.github.io/modules/application-info-module/" xlink:title="application&#45;info&#45;module">
<ellipse fill="none" stroke="green" cx="491.54" cy="-522" rx="119.68" ry="18"/>
<text text-anchor="middle" x="491.54" y="-518.3" font-family="Times,serif" font-size="14.00">application&#45;info&#45;module</text>
</a>
</g>
</g>
<!-- application&#45;info&#45;module&#45;&gt;debug&#45;web&#45;module -->
<g id="edge10" class="edge">
<title>application&#45;info&#45;module&#45;&gt;debug&#45;web&#45;module</title>
<path fill="none" stroke="black" d="M460.97,-504.41C443.17,-494.75 420.55,-482.48 401.49,-472.13"/>
<polygon fill="black" stroke="black" points="402.91,-468.92 392.45,-467.23 399.57,-475.07 402.91,-468.92"/>
</g>
<!-- admin&#45;web&#45;module -->
<g id="node11" class="node">
<title>admin&#45;web&#45;module</title>
<g id="a_node11"><a xlink:href="https://foreach-across.github.io/modules/admin-web-module/" xlink:title="admin&#45;web&#45;module">
<ellipse fill="none" stroke="green" cx="677.54" cy="-378" rx="98.58" ry="18"/>
<text text-anchor="middle" x="677.54" y="-374.3" font-family="Times,serif" font-size="14.00">admin&#45;web&#45;module</text>
</a>
</g>
</g>
<!-- application&#45;info&#45;module&#45;&gt;admin&#45;web&#45;module -->
<g id="edge11" class="edge">
<title>application&#45;info&#45;module&#45;&gt;admin&#45;web&#45;module</title>
<path fill="none" stroke="black" d="M510.77,-503.98C531.83,-485.59 566.81,-455.74 598.54,-432 612.78,-421.35 629.01,-410.28 643.05,-401.03"/>
<polygon fill="black" stroke="black" points="645.01,-403.93 651.46,-395.53 641.18,-398.07 645.01,-403.93"/>
</g>
<!-- admin&#45;web&#45;module&#45;&gt;spring&#45;security&#45;module -->
<g id="edge12" class="edge">
<title>admin&#45;web&#45;module&#45;&gt;spring&#45;security&#45;module</title>
<path fill="none" stroke="black" d="M625.63,-362.58C586.28,-351.65 531.98,-336.57 489.88,-324.87"/>
<polygon fill="black" stroke="black" points="490.57,-321.43 480,-322.13 488.7,-328.18 490.57,-321.43"/>
</g>
<!-- bootstrap&#45;ui&#45;module -->
<g id="node12" class="node">
<title>bootstrap&#45;ui&#45;module</title>
<g id="a_node12"><a xlink:href="https://foreach-across.github.io/modules/bootstrap-ui-module/" xlink:title="bootstrap&#45;ui&#45;module">
<ellipse fill="none" stroke="green" cx="677.54" cy="-306" rx="104.78" ry="18"/>
<text text-anchor="middle" x="677.54" y="-302.3" font-family="Times,serif" font-size="14.00">bootstrap&#45;ui&#45;module</text>
</a>
</g>
</g>
<!-- admin&#45;web&#45;module&#45;&gt;bootstrap&#45;ui&#45;module -->
<g id="edge13" class="edge">
<title>admin&#45;web&#45;module&#45;&gt;bootstrap&#45;ui&#45;module</title>
<path fill="none" stroke="black" d="M677.54,-359.7C677.54,-351.98 677.54,-342.71 677.54,-334.11"/>
<polygon fill="black" stroke="black" points="681.04,-334.1 677.54,-324.1 674.04,-334.1 681.04,-334.1"/>
</g>
<!-- bootstrap&#45;ui&#45;module&#45;&gt;across&#45;test -->
<g id="edge14" class="edge">
<title>bootstrap&#45;ui&#45;module&#45;&gt;across&#45;test</title>
<path fill="none" stroke="black" d="M650.57,-288.47C637.77,-279.27 623.37,-266.7 614.54,-252 603.32,-233.32 598.68,-208.93 596.78,-190.41"/>
<polygon fill="black" stroke="black" points="600.25,-189.95 595.95,-180.27 593.28,-190.52 600.25,-189.95"/>
</g>
<!-- ax&#45;bootstrap&#45;4&#45;utilities -->
<g id="node13" class="node">
<title>ax&#45;bootstrap&#45;4&#45;utilities</title>
<g id="a_node13"><a xlink:href="https://foreach-across.github.io/modules/ax-bootstrap-4-utilities/" xlink:title="ax&#45;bootstrap&#45;4&#45;utilities">
<ellipse fill="none" stroke="green" cx="739.54" cy="-234" rx="116.18" ry="18"/>
<text text-anchor="middle" x="739.54" y="-230.3" font-family="Times,serif" font-size="14.00">ax&#45;bootstrap&#45;4&#45;utilities</text>
</a>
</g>
</g>
<!-- bootstrap&#45;ui&#45;module&#45;&gt;ax&#45;bootstrap&#45;4&#45;utilities -->
<g id="edge15" class="edge">
<title>bootstrap&#45;ui&#45;module&#45;&gt;ax&#45;bootstrap&#45;4&#45;utilities</title>
<path fill="none" stroke="black" d="M692.55,-288.05C700.05,-279.58 709.28,-269.17 717.56,-259.82"/>
<polygon fill="black" stroke="black" points="720.23,-262.08 724.24,-252.28 714.99,-257.44 720.23,-262.08"/>
</g>
<!-- ax&#45;bootstrap&#45;theme -->
<g id="node14" class="node">
<title>ax&#45;bootstrap&#45;theme</title>
<g id="a_node14"><a xlink:href="https://foreach-across.github.io/modules/ax-bootstrap-theme/" xlink:title="ax&#45;bootstrap&#45;theme">
<ellipse fill="none" stroke="green" cx="876.54" cy="-450" rx="100.98" ry="18"/>
<text text-anchor="middle" x="876.54" y="-446.3" font-family="Times,serif" font-size="14.00">ax&#45;bootstrap&#45;theme</text>
</a>
</g>
</g>
<!-- ax&#45;bootstrap&#45;theme&#45;&gt;admin&#45;web&#45;module -->
<g id="edge16" class="edge">
<title>ax&#45;bootstrap&#45;theme&#45;&gt;admin&#45;web&#45;module</title>
<path fill="none" stroke="black" d="M832.87,-433.64C802.7,-423.02 762.4,-408.85 730.41,-397.6"/>
<polygon fill="black" stroke="black" points="731.36,-394.22 720.77,-394.21 729.04,-400.83 731.36,-394.22"/>
</g>
<!-- properties&#45;module -->
<g id="node15" class="node">
<title>properties&#45;module</title>
<g id="a_node15"><a xlink:href="https://foreach-across.github.io/modules/properties-module/" xlink:title="properties&#45;module">
<ellipse fill="none" stroke="green" cx="725.54" cy="-522" rx="96.38" ry="18"/>
<text text-anchor="middle" x="725.54" y="-518.3" font-family="Times,serif" font-size="14.00">properties&#45;module</text>
</a>
</g>
</g>
<!-- entity&#45;module -->
<g id="node16" class="node">
<title>entity&#45;module</title>
<g id="a_node16"><a xlink:href="https://foreach-across.github.io/modules/entity-module/" xlink:title="entity&#45;module">
<ellipse fill="none" stroke="green" cx="682.54" cy="-450" rx="75.29" ry="18"/>
<text text-anchor="middle" x="682.54" y="-446.3" font-family="Times,serif" font-size="14.00">entity&#45;module</text>
</a>
</g>
</g>
<!-- properties&#45;module&#45;&gt;entity&#45;module -->
<g id="edge17" class="edge">
<title>properties&#45;module&#45;&gt;entity&#45;module</title>
<path fill="none" stroke="black" d="M715.13,-504.05C710.14,-495.92 704.04,-486 698.48,-476.94"/>
<polygon fill="black" stroke="black" points="701.37,-474.96 693.15,-468.28 695.41,-478.63 701.37,-474.96"/>
</g>
<!-- entity&#45;module&#45;&gt;admin&#45;web&#45;module -->
<g id="edge18" class="edge">
<title>entity&#45;module&#45;&gt;admin&#45;web&#45;module</title>
<path fill="none" stroke="black" d="M681.31,-431.7C680.76,-423.98 680.09,-414.71 679.48,-406.11"/>
<polygon fill="black" stroke="black" points="682.97,-405.83 678.76,-396.1 675.99,-406.33 682.97,-405.83"/>
</g>
<!-- imageserver&#45;client -->
<g id="node17" class="node">
<title>imageserver&#45;client</title>
<g id="a_node17"><a xlink:href="https://foreach-across.github.io/modules/imageserver-client/" xlink:title="imageserver&#45;client">
<ellipse fill="none" stroke="blue" cx="724.54" cy="-594" rx="97.48" ry="18"/>
<text text-anchor="middle" x="724.54" y="-590.3" font-family="Times,serif" font-size="14.00">imageserver&#45;client</text>
</a>
</g>
</g>
<!-- file&#45;manager&#45;module -->
<g id="node18" class="node">
<title>file&#45;manager&#45;module</title>
<g id="a_node18"><a xlink:href="https://foreach-across.github.io/modules/file-manager-module/" xlink:title="file&#45;manager&#45;module">
<ellipse fill="none" stroke="blue" cx="503.54" cy="-594" rx="105.88" ry="18"/>
<text text-anchor="middle" x="503.54" y="-590.3" font-family="Times,serif" font-size="14.00">file&#45;manager&#45;module</text>
</a>
</g>
</g>
<!-- file&#45;manager&#45;module&#45;&gt;properties&#45;module -->
<g id="edge19" class="edge">
<title>file&#45;manager&#45;module&#45;&gt;properties&#45;module</title>
<path fill="none" stroke="black" d="M551.44,-577.9C585.81,-567.06 632.27,-552.41 668.55,-540.97"/>
<polygon fill="black" stroke="black" points="670.01,-544.18 678.49,-537.84 667.9,-537.5 670.01,-544.18"/>
</g>
<!-- imageserver&#45;core -->
<g id="node19" class="node">
<title>imageserver&#45;core</title>
<g id="a_node19"><a xlink:href="https://foreach-across.github.io/modules/imageserver-core/" xlink:title="imageserver&#45;core">
<ellipse fill="none" stroke="blue" cx="503.54" cy="-666" rx="91.78" ry="18"/>
<text text-anchor="middle" x="503.54" y="-662.3" font-family="Times,serif" font-size="14.00">imageserver&#45;core</text>
</a>
</g>
</g>
<!-- imageserver&#45;core&#45;&gt;ehcache&#45;module -->
<g id="edge20" class="edge">
<title>imageserver&#45;core&#45;&gt;ehcache&#45;module</title>
<path fill="none" stroke="black" d="M463.61,-649.68C440.84,-640.2 412.22,-626.99 388.54,-612 367.48,-598.67 365.39,-591.08 345.54,-576 331.66,-565.45 315.86,-554.41 302.21,-545.16"/>
<polygon fill="black" stroke="black" points="303.84,-542.04 293.58,-539.37 299.93,-547.85 303.84,-542.04"/>
</g>
<!-- imageserver&#45;core&#45;&gt;imageserver&#45;client -->
<g id="edge21" class="edge">
<title>imageserver&#45;core&#45;&gt;imageserver&#45;client</title>
<path fill="none" stroke="black" d="M549.6,-650.41C584.09,-639.49 631.45,-624.49 668.2,-612.85"/>
<polygon fill="black" stroke="black" points="669.31,-616.17 677.78,-609.81 667.19,-609.49 669.31,-616.17"/>
</g>
<!-- imageserver&#45;core&#45;&gt;file&#45;manager&#45;module -->
<g id="edge22" class="edge">
<title>imageserver&#45;core&#45;&gt;file&#45;manager&#45;module</title>
<path fill="none" stroke="black" d="M503.54,-647.7C503.54,-639.98 503.54,-630.71 503.54,-622.11"/>
<polygon fill="black" stroke="black" points="507.04,-622.1 503.54,-612.1 500.04,-622.1 507.04,-622.1"/>
</g>
<!-- imageserver&#45;admin -->
<g id="node20" class="node">
<title>imageserver&#45;admin</title>
<g id="a_node20"><a xlink:href="https://foreach-across.github.io/modules/imageserver-admin/" xlink:title="imageserver&#45;admin">
<ellipse fill="none" stroke="blue" cx="111.54" cy="-666" rx="100.98" ry="18"/>
<text text-anchor="middle" x="111.54" y="-662.3" font-family="Times,serif" font-size="14.00">imageserver&#45;admin</text>
</a>
</g>
</g>
<!-- user&#45;module -->
<g id="node21" class="node">
<title>user&#45;module</title>
<g id="a_node21"><a xlink:href="https://foreach-across.github.io/modules/user-module/" xlink:title="user&#45;module">
<ellipse fill="none" stroke="red" cx="268.54" cy="-594" rx="68.49" ry="18"/>
<text text-anchor="middle" x="268.54" y="-590.3" font-family="Times,serif" font-size="14.00">user&#45;module</text>
</a>
</g>
</g>
<!-- imageserver&#45;admin&#45;&gt;user&#45;module -->
<g id="edge23" class="edge">
<title>imageserver&#45;admin&#45;&gt;user&#45;module</title>
<path fill="none" stroke="black" d="M147.17,-649.12C170.67,-638.64 201.58,-624.86 226.32,-613.83"/>
<polygon fill="black" stroke="black" points="227.76,-617.01 235.47,-609.75 224.91,-610.62 227.76,-617.01"/>
</g>
<!-- user&#45;module&#45;&gt;ehcache&#45;module -->
<g id="edge24" class="edge">
<title>user&#45;module&#45;&gt;ehcache&#45;module</title>
<path fill="none" stroke="black" d="M268.54,-575.7C268.54,-567.98 268.54,-558.71 268.54,-550.11"/>
<polygon fill="black" stroke="black" points="272.04,-550.1 268.54,-540.1 265.04,-550.1 272.04,-550.1"/>
</g>
<!-- user&#45;module&#45;&gt;logging&#45;module -->
<g id="edge25" class="edge">
<title>user&#45;module&#45;&gt;logging&#45;module</title>
<path fill="none" stroke="black" d="M230.9,-578.83C202.24,-568.05 162.53,-553.1 131.41,-541.39"/>
<polygon fill="black" stroke="black" points="132.64,-538.12 122.05,-537.87 130.18,-544.67 132.64,-538.12"/>
</g>
<!-- user&#45;module&#45;&gt;properties&#45;module -->
<g id="edge26" class="edge">
<title>user&#45;module&#45;&gt;properties&#45;module</title>
<path fill="none" stroke="black" d="M326.5,-584.47C396.29,-574.16 517.05,-556.17 620.54,-540 628.74,-538.72 637.29,-537.36 645.82,-536"/>
<polygon fill="black" stroke="black" points="646.49,-539.44 655.81,-534.4 645.38,-532.53 646.49,-539.44"/>
</g>
<!-- web&#45;cms&#45;module -->
<g id="node22" class="node">
<title>web&#45;cms&#45;module</title>
<g id="a_node22"><a xlink:href="https://foreach-across.github.io/modules/web-cms-module/" xlink:title="web&#45;cms&#45;module">
<ellipse fill="none" stroke="blue" cx="786.54" cy="-666" rx="88.28" ry="18"/>
<text text-anchor="middle" x="786.54" y="-662.3" font-family="Times,serif" font-size="14.00">web&#45;cms&#45;module</text>
</a>
</g>
</g>
<!-- web&#45;cms&#45;module&#45;&gt;entity&#45;module -->
<g id="edge27" class="edge">
<title>web&#45;cms&#45;module&#45;&gt;entity&#45;module</title>
<path fill="none" stroke="black" d="M805.56,-648.38C815.03,-638.82 825.51,-625.95 830.54,-612 846.84,-566.85 858.18,-543.25 830.54,-504 820.09,-489.16 780.56,-475.44 744.98,-465.67"/>
<polygon fill="black" stroke="black" points="745.64,-462.23 735.07,-463.02 743.83,-468.99 745.64,-462.23"/>
</g>
<!-- web&#45;cms&#45;module&#45;&gt;imageserver&#45;client -->
<g id="edge28" class="edge">
<title>web&#45;cms&#45;module&#45;&gt;imageserver&#45;client</title>
<path fill="none" stroke="black" d="M771.53,-648.05C764.03,-639.58 754.81,-629.17 746.52,-619.82"/>
<polygon fill="black" stroke="black" points="749.09,-617.44 739.84,-612.28 743.85,-622.08 749.09,-617.44"/>
</g>
<!-- ldap&#45;module -->
<g id="node23" class="node">
<title>ldap&#45;module</title>
<g id="a_node23"><a xlink:href="https://foreach-across.github.io/modules/ldap-module/" xlink:title="ldap&#45;module">
<ellipse fill="none" stroke="red" cx="297.54" cy="-666" rx="67.69" ry="18"/>
<text text-anchor="middle" x="297.54" y="-662.3" font-family="Times,serif" font-size="14.00">ldap&#45;module</text>
</a>
</g>
</g>
<!-- ldap&#45;module&#45;&gt;user&#45;module -->
<g id="edge29" class="edge">
<title>ldap&#45;module&#45;&gt;user&#45;module</title>
<path fill="none" stroke="black" d="M290.52,-648.05C287.26,-640.18 283.3,-630.62 279.64,-621.79"/>
<polygon fill="black" stroke="black" points="282.76,-620.17 275.7,-612.28 276.29,-622.85 282.76,-620.17"/>
</g>
</g>
</svg>
