<?xml version="1.0" encoding="UTF-8" standalone="no"?>
<!DOCTYPE svg PUBLIC "-//W3C//DTD SVG 1.1//EN"
 "http://www.w3.org/Graphics/SVG/1.1/DTD/svg11.dtd">
<!-- Generated by graphviz version 2.43.0 (0)
 -->
<!-- Title: %3 Pages: 1 -->
<svg width="1007pt" height="692pt"
 viewBox="0.00 0.00 1007.13 692.00" xmlns="http://www.w3.org/2000/svg" xmlns:xlink="http://www.w3.org/1999/xlink">
<g id="graph0" class="graph" transform="scale(1 1) rotate(0) translate(4 688)">
<title>%3</title>
<polygon fill="white" stroke="transparent" points="-4,4 -4,-688 1003.13,-688 1003.13,4 -4,4"/>
<!-- across&#45;autoconfigure -->
<g id="node1" class="node">
<title>across&#45;autoconfigure</title>
<ellipse fill="none" stroke="black" cx="420.74" cy="-162" rx="107.48" ry="18"/>
<text text-anchor="middle" x="420.74" y="-158.3" font-family="Times,serif" font-size="14.00">across&#45;autoconfigure</text>
</g>
<!-- across&#45;web -->
<g id="node2" class="node">
<title>across&#45;web</title>
<ellipse fill="none" stroke="black" cx="513.74" cy="-90" rx="62.29" ry="18"/>
<text text-anchor="middle" x="513.74" y="-86.3" font-family="Times,serif" font-size="14.00">across&#45;web</text>
</g>
<!-- across&#45;autoconfigure&#45;&gt;across&#45;web -->
<g id="edge1" class="edge">
<title>across&#45;autoconfigure&#45;&gt;across&#45;web</title>
<path fill="none" stroke="black" d="M443.25,-144.05C455.51,-134.83 470.84,-123.29 484.06,-113.34"/>
<polygon fill="black" stroke="black" points="486.51,-115.88 492.39,-107.07 482.3,-110.29 486.51,-115.88"/>
</g>
<!-- across&#45;core -->
<g id="node3" class="node">
<title>across&#45;core</title>
<ellipse fill="none" stroke="black" cx="513.74" cy="-18" rx="63.89" ry="18"/>
<text text-anchor="middle" x="513.74" y="-14.3" font-family="Times,serif" font-size="14.00">across&#45;core</text>
</g>
<!-- across&#45;web&#45;&gt;across&#45;core -->
<g id="edge2" class="edge">
<title>across&#45;web&#45;&gt;across&#45;core</title>
<path fill="none" stroke="black" d="M513.74,-71.7C513.74,-63.98 513.74,-54.71 513.74,-46.11"/>
<polygon fill="black" stroke="black" points="517.24,-46.1 513.74,-36.1 510.24,-46.1 517.24,-46.1"/>
</g>
<!-- ehcache&#45;module -->
<g id="node4" class="node">
<title>ehcache&#45;module</title>
<ellipse fill="none" stroke="orange" cx="452.74" cy="-522" rx="85.29" ry="18"/>
<text text-anchor="middle" x="452.74" y="-518.3" font-family="Times,serif" font-size="14.00">ehcache&#45;module</text>
</g>
<!-- debug&#45;web&#45;module -->
<g id="node5" class="node">
<title>debug&#45;web&#45;module</title>
<ellipse fill="none" stroke="orange" cx="357.74" cy="-378" rx="98.58" ry="18"/>
<text text-anchor="middle" x="357.74" y="-374.3" font-family="Times,serif" font-size="14.00">debug&#45;web&#45;module</text>
</g>
<!-- ehcache&#45;module&#45;&gt;debug&#45;web&#45;module -->
<g id="edge3" class="edge">
<title>ehcache&#45;module&#45;&gt;debug&#45;web&#45;module</title>
<path fill="none" stroke="black" d="M399.76,-507.85C379.21,-499.89 357.77,-487.38 345.74,-468 334.17,-449.36 338.95,-424.32 345.59,-405.55"/>
<polygon fill="black" stroke="black" points="348.9,-406.7 349.27,-396.11 342.38,-404.16 348.9,-406.7"/>
</g>
<!-- spring&#45;security&#45;module -->
<g id="node6" class="node">
<title>spring&#45;security&#45;module</title>
<ellipse fill="none" stroke="orange" cx="420.74" cy="-306" rx="118.08" ry="18"/>
<text text-anchor="middle" x="420.74" y="-302.3" font-family="Times,serif" font-size="14.00">spring&#45;security&#45;module</text>
</g>
<!-- debug&#45;web&#45;module&#45;&gt;spring&#45;security&#45;module -->
<g id="edge4" class="edge">
<title>debug&#45;web&#45;module&#45;&gt;spring&#45;security&#45;module</title>
<path fill="none" stroke="black" d="M372.99,-360.05C380.62,-351.58 389.99,-341.17 398.41,-331.82"/>
<polygon fill="black" stroke="black" points="401.11,-334.05 405.19,-324.28 395.9,-329.37 401.11,-334.05"/>
</g>
<!-- across&#45;hibernate&#45;module -->
<g id="node8" class="node">
<title>across&#45;hibernate&#45;module</title>
<ellipse fill="none" stroke="orange" cx="420.74" cy="-234" rx="125.38" ry="18"/>
<text text-anchor="middle" x="420.74" y="-230.3" font-family="Times,serif" font-size="14.00">across&#45;hibernate&#45;module</text>
</g>
<!-- spring&#45;security&#45;module&#45;&gt;across&#45;hibernate&#45;module -->
<g id="edge8" class="edge">
<title>spring&#45;security&#45;module&#45;&gt;across&#45;hibernate&#45;module</title>
<path fill="none" stroke="black" d="M420.74,-287.7C420.74,-279.98 420.74,-270.71 420.74,-262.11"/>
<polygon fill="black" stroke="black" points="424.24,-262.1 420.74,-252.1 417.24,-262.1 424.24,-262.1"/>
</g>
<!-- across&#45;test -->
<g id="node7" class="node">
<title>across&#45;test</title>
<ellipse fill="none" stroke="black" cx="607.74" cy="-162" rx="61.99" ry="18"/>
<text text-anchor="middle" x="607.74" y="-158.3" font-family="Times,serif" font-size="14.00">across&#45;test</text>
</g>
<!-- across&#45;test&#45;&gt;across&#45;web -->
<g id="edge5" class="edge">
<title>across&#45;test&#45;&gt;across&#45;web</title>
<path fill="none" stroke="black" d="M585.94,-144.76C573.36,-135.4 557.37,-123.49 543.63,-113.26"/>
<polygon fill="black" stroke="black" points="545.54,-110.31 535.42,-107.15 541.35,-115.93 545.54,-110.31"/>
</g>
<!-- across&#45;hibernate&#45;module&#45;&gt;across&#45;autoconfigure -->
<g id="edge6" class="edge">
<title>across&#45;hibernate&#45;module&#45;&gt;across&#45;autoconfigure</title>
<path fill="none" stroke="black" d="M420.74,-215.7C420.74,-207.98 420.74,-198.71 420.74,-190.11"/>
<polygon fill="black" stroke="black" points="424.24,-190.1 420.74,-180.1 417.24,-190.1 424.24,-190.1"/>
</g>
<!-- across&#45;hibernate&#45;module&#45;&gt;across&#45;test -->
<g id="edge7" class="edge">
<title>across&#45;hibernate&#45;module&#45;&gt;across&#45;test</title>
<path fill="none" stroke="black" d="M463.64,-216.94C493.03,-205.94 531.95,-191.37 561.94,-180.15"/>
<polygon fill="black" stroke="black" points="563.2,-183.41 571.34,-176.63 560.74,-176.86 563.2,-183.41"/>
</g>
<!-- logging&#45;module -->
<g id="node9" class="node">
<title>logging&#45;module</title>
<ellipse fill="none" stroke="orange" cx="215.74" cy="-450" rx="82.59" ry="18"/>
<text text-anchor="middle" x="215.74" y="-446.3" font-family="Times,serif" font-size="14.00">logging&#45;module</text>
</g>
<!-- logging&#45;module&#45;&gt;debug&#45;web&#45;module -->
<g id="edge9" class="edge">
<title>logging&#45;module&#45;&gt;debug&#45;web&#45;module</title>
<path fill="none" stroke="black" d="M247.61,-433.29C267.79,-423.34 294.09,-410.38 315.94,-399.61"/>
<polygon fill="black" stroke="black" points="317.57,-402.7 324.99,-395.14 314.48,-396.42 317.57,-402.7"/>
</g>
<!-- properties&#45;module -->
<g id="node10" class="node">
<title>properties&#45;module</title>
<ellipse fill="none" stroke="green" cx="651.74" cy="-522" rx="96.38" ry="18"/>
<text text-anchor="middle" x="651.74" y="-518.3" font-family="Times,serif" font-size="14.00">properties&#45;module</text>
</g>
<!-- entity&#45;module -->
<g id="node11" class="node">
<title>entity&#45;module</title>
<ellipse fill="none" stroke="green" cx="906.74" cy="-450" rx="75.29" ry="18"/>
<text text-anchor="middle" x="906.74" y="-446.3" font-family="Times,serif" font-size="14.00">entity&#45;module</text>
</g>
<!-- properties&#45;module&#45;&gt;entity&#45;module -->
<g id="edge10" class="edge">
<title>properties&#45;module&#45;&gt;entity&#45;module</title>
<path fill="none" stroke="black" d="M703.65,-506.75C745.94,-495.14 805.58,-478.77 849.3,-466.77"/>
<polygon fill="black" stroke="black" points="850.49,-470.07 859.21,-464.05 848.64,-463.32 850.49,-470.07"/>
</g>
<!-- admin&#45;web&#45;module -->
<g id="node12" class="node">
<title>admin&#45;web&#45;module</title>
<ellipse fill="none" stroke="green" cx="696.74" cy="-378" rx="98.58" ry="18"/>
<text text-anchor="middle" x="696.74" y="-374.3" font-family="Times,serif" font-size="14.00">admin&#45;web&#45;module</text>
</g>
<!-- entity&#45;module&#45;&gt;admin&#45;web&#45;module -->
<g id="edge11" class="edge">
<title>entity&#45;module&#45;&gt;admin&#45;web&#45;module</title>
<path fill="none" stroke="black" d="M864.75,-435C832.26,-424.17 786.99,-409.08 751.62,-397.29"/>
<polygon fill="black" stroke="black" points="752.53,-393.91 741.93,-394.06 750.31,-400.55 752.53,-393.91"/>
</g>
<!-- admin&#45;web&#45;module&#45;&gt;spring&#45;security&#45;module -->
<g id="edge14" class="edge">
<title>admin&#45;web&#45;module&#45;&gt;spring&#45;security&#45;module</title>
<path fill="none" stroke="black" d="M641.55,-363C597.49,-351.83 535.56,-336.12 488.49,-324.18"/>
<polygon fill="black" stroke="black" points="489.24,-320.76 478.69,-321.7 487.52,-327.55 489.24,-320.76"/>
</g>
<!-- bootstrap&#45;ui&#45;module -->
<g id="node13" class="node">
<title>bootstrap&#45;ui&#45;module</title>
<ellipse fill="none" stroke="green" cx="696.74" cy="-306" rx="104.78" ry="18"/>
<text text-anchor="middle" x="696.74" y="-302.3" font-family="Times,serif" font-size="14.00">bootstrap&#45;ui&#45;module</text>
</g>
<!-- admin&#45;web&#45;module&#45;&gt;bootstrap&#45;ui&#45;module -->
<g id="edge15" class="edge">
<title>admin&#45;web&#45;module&#45;&gt;bootstrap&#45;ui&#45;module</title>
<path fill="none" stroke="black" d="M696.74,-359.7C696.74,-351.98 696.74,-342.71 696.74,-334.11"/>
<polygon fill="black" stroke="black" points="700.24,-334.1 696.74,-324.1 693.24,-334.1 700.24,-334.1"/>
</g>
<!-- bootstrap&#45;ui&#45;module&#45;&gt;across&#45;test -->
<g id="edge12" class="edge">
<title>bootstrap&#45;ui&#45;module&#45;&gt;across&#45;test</title>
<path fill="none" stroke="black" d="M753.83,-290.87C773.77,-282.89 794.08,-270.64 805.74,-252 814.23,-238.44 815.48,-228.69 805.74,-216 789.49,-194.83 724.31,-180.27 673.11,-171.85"/>
<polygon fill="black" stroke="black" points="673.5,-168.36 663.08,-170.24 672.4,-175.28 673.5,-168.36"/>
</g>
<!-- ax&#45;bootstrap&#45;4&#45;utilities -->
<g id="node14" class="node">
<title>ax&#45;bootstrap&#45;4&#45;utilities</title>
<ellipse fill="none" stroke="green" cx="680.74" cy="-234" rx="116.18" ry="18"/>
<text text-anchor="middle" x="680.74" y="-230.3" font-family="Times,serif" font-size="14.00">ax&#45;bootstrap&#45;4&#45;utilities</text>
</g>
<!-- bootstrap&#45;ui&#45;module&#45;&gt;ax&#45;bootstrap&#45;4&#45;utilities -->
<g id="edge13" class="edge">
<title>bootstrap&#45;ui&#45;module&#45;&gt;ax&#45;bootstrap&#45;4&#45;utilities</title>
<path fill="none" stroke="black" d="M692.79,-287.7C691.02,-279.98 688.9,-270.71 686.94,-262.11"/>
<polygon fill="black" stroke="black" points="690.29,-261.07 684.65,-252.1 683.47,-262.63 690.29,-261.07"/>
</g>
<!-- application&#45;info&#45;module -->
<g id="node15" class="node">
<title>application&#45;info&#45;module</title>
<ellipse fill="none" stroke="green" cx="474.74" cy="-450" rx="119.68" ry="18"/>
<text text-anchor="middle" x="474.74" y="-446.3" font-family="Times,serif" font-size="14.00">application&#45;info&#45;module</text>
</g>
<!-- application&#45;info&#45;module&#45;&gt;debug&#45;web&#45;module -->
<g id="edge16" class="edge">
<title>application&#45;info&#45;module&#45;&gt;debug&#45;web&#45;module</title>
<path fill="none" stroke="black" d="M447.01,-432.41C431.13,-422.91 411.02,-410.88 393.91,-400.64"/>
<polygon fill="black" stroke="black" points="395.65,-397.6 385.27,-395.47 392.05,-403.61 395.65,-397.6"/>
</g>
<!-- application&#45;info&#45;module&#45;&gt;admin&#45;web&#45;module -->
<g id="edge17" class="edge">
<title>application&#45;info&#45;module&#45;&gt;admin&#45;web&#45;module</title>
<path fill="none" stroke="black" d="M523.73,-433.55C557.93,-422.77 603.69,-408.34 639.56,-397.03"/>
<polygon fill="black" stroke="black" points="640.91,-400.27 649.4,-393.93 638.81,-393.6 640.91,-400.27"/>
</g>
<!-- ax&#45;bootstrap&#45;theme -->
<g id="node16" class="node">
<title>ax&#45;bootstrap&#45;theme</title>
<ellipse fill="none" stroke="green" cx="712.74" cy="-450" rx="100.98" ry="18"/>
<text text-anchor="middle" x="712.74" y="-446.3" font-family="Times,serif" font-size="14.00">ax&#45;bootstrap&#45;theme</text>
</g>
<!-- ax&#45;bootstrap&#45;theme&#45;&gt;admin&#45;web&#45;module -->
<g id="edge18" class="edge">
<title>ax&#45;bootstrap&#45;theme&#45;&gt;admin&#45;web&#45;module</title>
<path fill="none" stroke="black" d="M708.79,-431.7C707.02,-423.98 704.9,-414.71 702.94,-406.11"/>
<polygon fill="black" stroke="black" points="706.29,-405.07 700.65,-396.1 699.47,-406.63 706.29,-405.07"/>
</g>
<!-- imageserver&#45;core -->
<g id="node17" class="node">
<title>imageserver&#45;core</title>
<ellipse fill="none" stroke="blue" cx="642.74" cy="-666" rx="91.78" ry="18"/>
<text text-anchor="middle" x="642.74" y="-662.3" font-family="Times,serif" font-size="14.00">imageserver&#45;core</text>
</g>
<!-- imageserver&#45;core&#45;&gt;ehcache&#45;module -->
<g id="edge19" class="edge">
<title>imageserver&#45;core&#45;&gt;ehcache&#45;module</title>
<path fill="none" stroke="black" d="M589.13,-651.37C563.75,-643.01 534.16,-630.31 511.74,-612 490.89,-594.97 474.71,-568.62 464.61,-549"/>
<polygon fill="black" stroke="black" points="467.72,-547.39 460.15,-539.98 461.44,-550.5 467.72,-547.39"/>
</g>
<!-- file&#45;manager&#45;module -->
<g id="node18" class="node">
<title>file&#45;manager&#45;module</title>
<ellipse fill="none" stroke="blue" cx="626.74" cy="-594" rx="105.88" ry="18"/>
<text text-anchor="middle" x="626.74" y="-590.3" font-family="Times,serif" font-size="14.00">file&#45;manager&#45;module</text>
</g>
<!-- imageserver&#45;core&#45;&gt;file&#45;manager&#45;module -->
<g id="edge20" class="edge">
<title>imageserver&#45;core&#45;&gt;file&#45;manager&#45;module</title>
<path fill="none" stroke="black" d="M638.79,-647.7C637.02,-639.98 634.9,-630.71 632.94,-622.11"/>
<polygon fill="black" stroke="black" points="636.29,-621.07 630.65,-612.1 629.47,-622.63 636.29,-621.07"/>
</g>
<!-- imageserver&#45;client -->
<g id="node19" class="node">
<title>imageserver&#45;client</title>
<ellipse fill="none" stroke="blue" cx="847.74" cy="-594" rx="97.48" ry="18"/>
<text text-anchor="middle" x="847.74" y="-590.3" font-family="Times,serif" font-size="14.00">imageserver&#45;client</text>
</g>
<!-- imageserver&#45;core&#45;&gt;imageserver&#45;client -->
<g id="edge21" class="edge">
<title>imageserver&#45;core&#45;&gt;imageserver&#45;client</title>
<path fill="none" stroke="black" d="M686.47,-650.07C717.83,-639.36 760.27,-624.87 793.74,-613.44"/>
<polygon fill="black" stroke="black" points="795.04,-616.69 803.38,-610.15 792.78,-610.07 795.04,-616.69"/>
</g>
<!-- file&#45;manager&#45;module&#45;&gt;properties&#45;module -->
<g id="edge22" class="edge">
<title>file&#45;manager&#45;module&#45;&gt;properties&#45;module</title>
<path fill="none" stroke="black" d="M632.92,-575.7C635.74,-567.81 639.13,-558.3 642.26,-549.55"/>
<polygon fill="black" stroke="black" points="645.57,-550.7 645.63,-540.1 638.97,-548.34 645.57,-550.7"/>
</g>
<!-- web&#45;cms&#45;module -->
<g id="node20" class="node">
<title>web&#45;cms&#45;module</title>
<ellipse fill="none" stroke="blue" cx="910.74" cy="-666" rx="88.28" ry="18"/>
<text text-anchor="middle" x="910.74" y="-662.3" font-family="Times,serif" font-size="14.00">web&#45;cms&#45;module</text>
</g>
<!-- web&#45;cms&#45;module&#45;&gt;entity&#45;module -->
<g id="edge23" class="edge">
<title>web&#45;cms&#45;module&#45;&gt;entity&#45;module</title>
<path fill="none" stroke="black" d="M929.33,-648.3C938.59,-638.72 948.83,-625.85 953.74,-612 970.39,-565.04 943.79,-508.93 924.31,-476.88"/>
<polygon fill="black" stroke="black" points="927.09,-474.72 918.8,-468.12 921.17,-478.45 927.09,-474.72"/>
</g>
<!-- web&#45;cms&#45;module&#45;&gt;imageserver&#45;client -->
<g id="edge24" class="edge">
<title>web&#45;cms&#45;module&#45;&gt;imageserver&#45;client</title>
<path fill="none" stroke="black" d="M895.49,-648.05C887.75,-639.46 878.21,-628.86 869.7,-619.4"/>
<polygon fill="black" stroke="black" points="872.14,-616.88 862.85,-611.79 866.94,-621.56 872.14,-616.88"/>
</g>
<!-- imageserver&#45;admin -->
<g id="node21" class="node">
<title>imageserver&#45;admin</title>
<ellipse fill="none" stroke="blue" cx="100.74" cy="-666" rx="100.98" ry="18"/>
<text text-anchor="middle" x="100.74" y="-662.3" font-family="Times,serif" font-size="14.00">imageserver&#45;admin</text>
</g>
<!-- user&#45;module -->
<g id="node22" class="node">
<title>user&#45;module</title>
<ellipse fill="none" stroke="red" cx="349.74" cy="-594" rx="68.49" ry="18"/>
<text text-anchor="middle" x="349.74" y="-590.3" font-family="Times,serif" font-size="14.00">user&#45;module</text>
</g>
<!-- imageserver&#45;admin&#45;&gt;user&#45;module -->
<g id="edge25" class="edge">
<title>imageserver&#45;admin&#45;&gt;user&#45;module</title>
<path fill="none" stroke="black" d="M152.33,-650.5C194.01,-638.78 252.51,-622.34 295,-610.39"/>
<polygon fill="black" stroke="black" points="296.21,-613.68 304.89,-607.61 294.32,-606.95 296.21,-613.68"/>
</g>
<!-- user&#45;module&#45;&gt;ehcache&#45;module -->
<g id="edge26" class="edge">
<title>user&#45;module&#45;&gt;ehcache&#45;module</title>
<path fill="none" stroke="black" d="M373.37,-576.94C387.17,-567.56 404.8,-555.58 419.93,-545.3"/>
<polygon fill="black" stroke="black" points="422.2,-547.99 428.51,-539.47 418.27,-542.2 422.2,-547.99"/>
</g>
<!-- user&#45;module&#45;&gt;properties&#45;module -->
<g id="edge27" class="edge">
<title>user&#45;module&#45;&gt;properties&#45;module</title>
<path fill="none" stroke="black" d="M399.27,-581.52C449.63,-569.85 528.01,-551.68 584.07,-538.68"/>
<polygon fill="black" stroke="black" points="584.97,-542.07 593.92,-536.4 583.39,-535.25 584.97,-542.07"/>
</g>
<!-- spring&#45;security&#45;acl&#45;module -->
<g id="node23" class="node">
<title>spring&#45;security&#45;acl&#45;module</title>
<ellipse fill="none" stroke="red" cx="215.74" cy="-522" rx="133.78" ry="18"/>
<text text-anchor="middle" x="215.74" y="-518.3" font-family="Times,serif" font-size="14.00">spring&#45;security&#45;acl&#45;module</text>
</g>
<!-- user&#45;module&#45;&gt;spring&#45;security&#45;acl&#45;module -->
<g id="edge28" class="edge">
<title>user&#45;module&#45;&gt;spring&#45;security&#45;acl&#45;module</title>
<path fill="none" stroke="black" d="M320.33,-577.64C301.54,-567.82 276.92,-554.96 256.28,-544.18"/>
<polygon fill="black" stroke="black" points="257.9,-541.08 247.42,-539.55 254.66,-547.28 257.9,-541.08"/>
</g>
<!-- spring&#45;security&#45;acl&#45;module&#45;&gt;logging&#45;module -->
<g id="edge29" class="edge">
<title>spring&#45;security&#45;acl&#45;module&#45;&gt;logging&#45;module</title>
<path fill="none" stroke="black" d="M215.74,-503.7C215.74,-495.98 215.74,-486.71 215.74,-478.11"/>
<polygon fill="black" stroke="black" points="219.24,-478.1 215.74,-468.1 212.24,-478.1 219.24,-478.1"/>
</g>
<!-- spring&#45;security&#45;acl&#45;module&#45;&gt;entity&#45;module -->
<g id="edge30" class="edge">
<title>spring&#45;security&#45;acl&#45;module&#45;&gt;entity&#45;module</title>
<path fill="none" stroke="black" d="M310.29,-509.21C326.45,-507.35 343.07,-505.54 358.74,-504 564.59,-483.79 617.88,-496.57 822.74,-468 829.47,-467.06 836.48,-465.92 843.44,-464.67"/>
<polygon fill="black" stroke="black" points="844.4,-468.05 853.59,-462.78 843.11,-461.17 844.4,-468.05"/>
</g>
<!-- ldap&#45;module -->
<g id="node24" class="node">
<title>ldap&#45;module</title>
<ellipse fill="none" stroke="red" cx="286.74" cy="-666" rx="67.69" ry="18"/>
<text text-anchor="middle" x="286.74" y="-662.3" font-family="Times,serif" font-size="14.00">ldap&#45;module</text>
</g>
<!-- ldap&#45;module&#45;&gt;user&#45;module -->
<g id="edge31" class="edge">
<title>ldap&#45;module&#45;&gt;user&#45;module</title>
<path fill="none" stroke="black" d="M301.67,-648.41C309.4,-639.82 319,-629.16 327.58,-619.63"/>
<polygon fill="black" stroke="black" points="330.39,-621.73 334.48,-611.96 325.19,-617.05 330.39,-621.73"/>
</g>
<!-- oauth2&#45;module -->
<g id="node25" class="node">
<title>oauth2&#45;module</title>
<ellipse fill="none" stroke="red" cx="452.74" cy="-666" rx="79.89" ry="18"/>
<text text-anchor="middle" x="452.74" y="-662.3" font-family="Times,serif" font-size="14.00">oauth2&#45;module</text>
</g>
<!-- oauth2&#45;module&#45;&gt;user&#45;module -->
<g id="edge32" class="edge">
<title>oauth2&#45;module&#45;&gt;user&#45;module</title>
<path fill="none" stroke="black" d="M428.85,-648.76C414.94,-639.31 397.22,-627.26 382.07,-616.97"/>
<polygon fill="black" stroke="black" points="383.74,-613.87 373.5,-611.15 379.8,-619.66 383.74,-613.87"/>
</g>
</g>
</svg>
