<?xml version="1.0" encoding="UTF-8" standalone="no"?>
<!DOCTYPE svg PUBLIC "-//W3C//DTD SVG 1.1//EN"
 "http://www.w3.org/Graphics/SVG/1.1/DTD/svg11.dtd">
<!-- Generated by graphviz version 2.43.0 (0)
 -->
<!-- Title: %3 Pages: 1 -->
<svg width="1296pt" height="836pt"
 viewBox="0.00 0.00 1295.88 836.00" xmlns="http://www.w3.org/2000/svg" xmlns:xlink="http://www.w3.org/1999/xlink">
<g id="graph0" class="graph" transform="scale(1 1) rotate(0) translate(4 832)">
<title>%3</title>
<polygon fill="white" stroke="transparent" points="-4,4 -4,-832 1291.88,-832 1291.88,4 -4,4"/>
<!-- across -->
<g id="node1" class="node">
<title>across</title>
<ellipse fill="none" stroke="black" cx="253.79" cy="-90" rx="40.09" ry="18"/>
<text text-anchor="middle" x="253.79" y="-86.3" font-family="Times,serif" font-size="14.00">across</text>
</g>
<!-- common&#45;java&#45;libraries -->
<g id="node2" class="node">
<title>common&#45;java&#45;libraries</title>
<ellipse fill="none" stroke="black" cx="253.79" cy="-18" rx="113.98" ry="18"/>
<text text-anchor="middle" x="253.79" y="-14.3" font-family="Times,serif" font-size="14.00">common&#45;java&#45;libraries</text>
</g>
<!-- across&#45;&gt;common&#45;java&#45;libraries -->
<g id="edge1" class="edge">
<title>across&#45;&gt;common&#45;java&#45;libraries</title>
<path fill="none" stroke="black" d="M253.79,-71.7C253.79,-63.98 253.79,-54.71 253.79,-46.11"/>
<polygon fill="black" stroke="black" points="257.29,-46.1 253.79,-36.1 250.29,-46.1 257.29,-46.1"/>
</g>
<!-- across&#45;autoconfigure -->
<g id="node3" class="node">
<title>across&#45;autoconfigure</title>
<ellipse fill="none" stroke="black" cx="253.79" cy="-162" rx="107.48" ry="18"/>
<text text-anchor="middle" x="253.79" y="-158.3" font-family="Times,serif" font-size="14.00">across&#45;autoconfigure</text>
</g>
<!-- across&#45;autoconfigure&#45;&gt;across -->
<g id="edge2" class="edge">
<title>across&#45;autoconfigure&#45;&gt;across</title>
<path fill="none" stroke="black" d="M253.79,-143.7C253.79,-135.98 253.79,-126.71 253.79,-118.11"/>
<polygon fill="black" stroke="black" points="257.29,-118.1 253.79,-108.1 250.29,-118.1 257.29,-118.1"/>
</g>
<!-- across&#45;platform -->
<g id="node4" class="node">
<title>across&#45;platform</title>
<ellipse fill="none" stroke="black" cx="459.79" cy="-810" rx="83.39" ry="18"/>
<text text-anchor="middle" x="459.79" y="-806.3" font-family="Times,serif" font-size="14.00">across&#45;platform</text>
</g>
<!-- oauth2&#45;module -->
<g id="node5" class="node">
<title>oauth2&#45;module</title>
<ellipse fill="none" stroke="black" cx="510.79" cy="-666" rx="79.89" ry="18"/>
<text text-anchor="middle" x="510.79" y="-662.3" font-family="Times,serif" font-size="14.00">oauth2&#45;module</text>
</g>
<!-- across&#45;platform&#45;&gt;oauth2&#45;module -->
<g id="edge3" class="edge">
<title>across&#45;platform&#45;&gt;oauth2&#45;module</title>
<path fill="none" stroke="black" d="M467.71,-792C472.37,-781.69 478.23,-768.22 482.79,-756 490.46,-735.45 497.85,-711.73 503.11,-693.96"/>
<polygon fill="black" stroke="black" points="506.5,-694.82 505.95,-684.24 499.78,-692.86 506.5,-694.82"/>
</g>
<!-- application&#45;info&#45;module -->
<g id="node6" class="node">
<title>application&#45;info&#45;module</title>
<ellipse fill="none" stroke="black" cx="930.79" cy="-594" rx="119.68" ry="18"/>
<text text-anchor="middle" x="930.79" y="-590.3" font-family="Times,serif" font-size="14.00">application&#45;info&#45;module</text>
</g>
<!-- across&#45;platform&#45;&gt;application&#45;info&#45;module -->
<g id="edge4" class="edge">
<title>across&#45;platform&#45;&gt;application&#45;info&#45;module</title>
<path fill="none" stroke="black" d="M520.12,-797.6C530.67,-795.67 541.54,-793.74 551.79,-792 654.66,-774.52 685.54,-791.15 783.79,-756 843.07,-734.79 867.4,-733.9 905.79,-684 919.52,-666.16 925.71,-641.15 928.5,-622.19"/>
<polygon fill="black" stroke="black" points="931.99,-622.44 929.75,-612.09 925.05,-621.58 931.99,-622.44"/>
</g>
<!-- spring&#45;batch&#45;module -->
<g id="node7" class="node">
<title>spring&#45;batch&#45;module</title>
<ellipse fill="none" stroke="black" cx="261.79" cy="-666" rx="106.68" ry="18"/>
<text text-anchor="middle" x="261.79" y="-662.3" font-family="Times,serif" font-size="14.00">spring&#45;batch&#45;module</text>
</g>
<!-- across&#45;platform&#45;&gt;spring&#45;batch&#45;module -->
<g id="edge5" class="edge">
<title>across&#45;platform&#45;&gt;spring&#45;batch&#45;module</title>
<path fill="none" stroke="black" d="M409.2,-795.62C383.39,-787.12 352.53,-774.23 328.79,-756 306.41,-738.81 287.78,-712.31 275.89,-692.69"/>
<polygon fill="black" stroke="black" points="278.84,-690.8 270.76,-683.95 272.81,-694.35 278.84,-690.8"/>
</g>
<!-- web&#45;cms&#45;module -->
<g id="node8" class="node">
<title>web&#45;cms&#45;module</title>
<ellipse fill="none" stroke="black" cx="686.79" cy="-738" rx="88.28" ry="18"/>
<text text-anchor="middle" x="686.79" y="-734.3" font-family="Times,serif" font-size="14.00">web&#45;cms&#45;module</text>
</g>
<!-- across&#45;platform&#45;&gt;web&#45;cms&#45;module -->
<g id="edge6" class="edge">
<title>across&#45;platform&#45;&gt;web&#45;cms&#45;module</title>
<path fill="none" stroke="black" d="M505.45,-794.92C541.35,-783.85 591.53,-768.37 630.01,-756.51"/>
<polygon fill="black" stroke="black" points="631.51,-759.71 640.03,-753.42 629.44,-753.02 631.51,-759.71"/>
</g>
<!-- spring&#45;mobile&#45;module -->
<g id="node9" class="node">
<title>spring&#45;mobile&#45;module</title>
<ellipse fill="none" stroke="black" cx="111.79" cy="-594" rx="111.58" ry="18"/>
<text text-anchor="middle" x="111.79" y="-590.3" font-family="Times,serif" font-size="14.00">spring&#45;mobile&#45;module</text>
</g>
<!-- across&#45;platform&#45;&gt;spring&#45;mobile&#45;module -->
<g id="edge7" class="edge">
<title>across&#45;platform&#45;&gt;spring&#45;mobile&#45;module</title>
<path fill="none" stroke="black" d="M391.73,-799.61C320.55,-786.24 210.39,-754.92 145.79,-684 130,-666.67 121.27,-641.24 116.63,-622"/>
<polygon fill="black" stroke="black" points="120,-621.06 114.45,-612.04 113.17,-622.55 120,-621.06"/>
</g>
<!-- ldap&#45;module -->
<g id="node10" class="node">
<title>ldap&#45;module</title>
<ellipse fill="none" stroke="black" cx="405.79" cy="-738" rx="67.69" ry="18"/>
<text text-anchor="middle" x="405.79" y="-734.3" font-family="Times,serif" font-size="14.00">ldap&#45;module</text>
</g>
<!-- across&#45;platform&#45;&gt;ldap&#45;module -->
<g id="edge8" class="edge">
<title>across&#45;platform&#45;&gt;ldap&#45;module</title>
<path fill="none" stroke="black" d="M446.72,-792.05C440.22,-783.63 432.23,-773.28 425.05,-763.97"/>
<polygon fill="black" stroke="black" points="427.62,-761.57 418.74,-755.79 422.08,-765.84 427.62,-761.57"/>
</g>
<!-- user&#45;module -->
<g id="node11" class="node">
<title>user&#45;module</title>
<ellipse fill="none" stroke="black" cx="510.79" cy="-594" rx="68.49" ry="18"/>
<text text-anchor="middle" x="510.79" y="-590.3" font-family="Times,serif" font-size="14.00">user&#45;module</text>
</g>
<!-- oauth2&#45;module&#45;&gt;user&#45;module -->
<g id="edge9" class="edge">
<title>oauth2&#45;module&#45;&gt;user&#45;module</title>
<path fill="none" stroke="black" d="M510.79,-647.7C510.79,-639.98 510.79,-630.71 510.79,-622.11"/>
<polygon fill="black" stroke="black" points="514.29,-622.1 510.79,-612.1 507.29,-622.1 514.29,-622.1"/>
</g>
<!-- admin&#45;web&#45;module -->
<g id="node15" class="node">
<title>admin&#45;web&#45;module</title>
<ellipse fill="none" stroke="black" cx="636.79" cy="-378" rx="98.58" ry="18"/>
<text text-anchor="middle" x="636.79" y="-374.3" font-family="Times,serif" font-size="14.00">admin&#45;web&#45;module</text>
</g>
<!-- application&#45;info&#45;module&#45;&gt;admin&#45;web&#45;module -->
<g id="edge15" class="edge">
<title>application&#45;info&#45;module&#45;&gt;admin&#45;web&#45;module</title>
<path fill="none" stroke="black" d="M907.72,-576.21C855.34,-538.08 727.37,-444.93 668,-401.72"/>
<polygon fill="black" stroke="black" points="669.9,-398.77 659.75,-395.71 665.78,-404.43 669.9,-398.77"/>
</g>
<!-- debug&#45;web&#45;module -->
<g id="node13" class="node">
<title>debug&#45;web&#45;module</title>
<ellipse fill="none" stroke="black" cx="270.79" cy="-378" rx="98.58" ry="18"/>
<text text-anchor="middle" x="270.79" y="-374.3" font-family="Times,serif" font-size="14.00">debug&#45;web&#45;module</text>
</g>
<!-- spring&#45;batch&#45;module&#45;&gt;debug&#45;web&#45;module -->
<g id="edge16" class="edge">
<title>spring&#45;batch&#45;module&#45;&gt;debug&#45;web&#45;module</title>
<path fill="none" stroke="black" d="M262.33,-647.97C263.83,-600.29 268.08,-465.18 269.92,-406.63"/>
<polygon fill="black" stroke="black" points="273.43,-406.41 270.25,-396.31 266.43,-406.19 273.43,-406.41"/>
</g>
<!-- across&#45;imageserver&#45;modules -->
<g id="node19" class="node">
<title>across&#45;imageserver&#45;modules</title>
<ellipse fill="none" stroke="black" cx="752.79" cy="-666" rx="143.77" ry="18"/>
<text text-anchor="middle" x="752.79" y="-662.3" font-family="Times,serif" font-size="14.00">across&#45;imageserver&#45;modules</text>
</g>
<!-- web&#45;cms&#45;module&#45;&gt;across&#45;imageserver&#45;modules -->
<g id="edge20" class="edge">
<title>web&#45;cms&#45;module&#45;&gt;across&#45;imageserver&#45;modules</title>
<path fill="none" stroke="black" d="M702.77,-720.05C710.75,-711.58 720.57,-701.17 729.39,-691.82"/>
<polygon fill="black" stroke="black" points="732.19,-693.95 736.5,-684.28 727.1,-689.15 732.19,-693.95"/>
</g>
<!-- spring&#45;mobile&#45;module&#45;&gt;debug&#45;web&#45;module -->
<g id="edge21" class="edge">
<title>spring&#45;mobile&#45;module&#45;&gt;debug&#45;web&#45;module</title>
<path fill="none" stroke="black" d="M124.53,-575.85C152.51,-538.19 219.43,-448.13 252.14,-404.1"/>
<polygon fill="black" stroke="black" points="255.05,-406.05 258.21,-395.94 249.43,-401.87 255.05,-406.05"/>
</g>
<!-- ldap&#45;module&#45;&gt;user&#45;module -->
<g id="edge25" class="edge">
<title>ldap&#45;module&#45;&gt;user&#45;module</title>
<path fill="none" stroke="black" d="M404.83,-719.68C404.63,-700.49 406.95,-669.42 421.79,-648 432.06,-633.17 447.95,-621.82 463.47,-613.51"/>
<polygon fill="black" stroke="black" points="465.16,-616.58 472.53,-608.96 462.02,-610.32 465.16,-616.58"/>
</g>
<!-- ehcache&#45;module -->
<g id="node12" class="node">
<title>ehcache&#45;module</title>
<ellipse fill="none" stroke="black" cx="364.79" cy="-522" rx="85.29" ry="18"/>
<text text-anchor="middle" x="364.79" y="-518.3" font-family="Times,serif" font-size="14.00">ehcache&#45;module</text>
</g>
<!-- user&#45;module&#45;&gt;ehcache&#45;module -->
<g id="edge18" class="edge">
<title>user&#45;module&#45;&gt;ehcache&#45;module</title>
<path fill="none" stroke="black" d="M479.47,-577.98C458.26,-567.81 429.99,-554.26 406.83,-543.16"/>
<polygon fill="black" stroke="black" points="408.11,-539.89 397.58,-538.72 405.08,-546.2 408.11,-539.89"/>
</g>
<!-- spring&#45;security&#45;acl&#45;module -->
<g id="node16" class="node">
<title>spring&#45;security&#45;acl&#45;module</title>
<ellipse fill="none" stroke="black" cx="601.79" cy="-522" rx="133.78" ry="18"/>
<text text-anchor="middle" x="601.79" y="-518.3" font-family="Times,serif" font-size="14.00">spring&#45;security&#45;acl&#45;module</text>
</g>
<!-- user&#45;module&#45;&gt;spring&#45;security&#45;acl&#45;module -->
<g id="edge19" class="edge">
<title>user&#45;module&#45;&gt;spring&#45;security&#45;acl&#45;module</title>
<path fill="none" stroke="black" d="M531.9,-576.76C543.7,-567.69 558.61,-556.22 571.62,-546.21"/>
<polygon fill="black" stroke="black" points="574.06,-548.75 579.85,-539.88 569.79,-543.2 574.06,-548.75"/>
</g>
<!-- ehcache&#45;module&#45;&gt;debug&#45;web&#45;module -->
<g id="edge10" class="edge">
<title>ehcache&#45;module&#45;&gt;debug&#45;web&#45;module</title>
<path fill="none" stroke="black" d="M343.32,-504.36C331.93,-494.69 318.35,-481.73 308.79,-468 295.42,-448.8 285.36,-424.17 278.95,-405.68"/>
<polygon fill="black" stroke="black" points="282.25,-404.5 275.78,-396.12 275.61,-406.71 282.25,-404.5"/>
</g>
<!-- spring&#45;security&#45;module -->
<g id="node21" class="node">
<title>spring&#45;security&#45;module</title>
<ellipse fill="none" stroke="black" cx="260.79" cy="-306" rx="118.08" ry="18"/>
<text text-anchor="middle" x="260.79" y="-302.3" font-family="Times,serif" font-size="14.00">spring&#45;security&#45;module</text>
</g>
<!-- debug&#45;web&#45;module&#45;&gt;spring&#45;security&#45;module -->
<g id="edge23" class="edge">
<title>debug&#45;web&#45;module&#45;&gt;spring&#45;security&#45;module</title>
<path fill="none" stroke="black" d="M268.32,-359.7C267.22,-351.98 265.89,-342.71 264.66,-334.11"/>
<polygon fill="black" stroke="black" points="268.11,-333.51 263.23,-324.1 261.18,-334.5 268.11,-333.51"/>
</g>
<!-- entity&#45;ui&#45;module -->
<g id="node14" class="node">
<title>entity&#45;ui&#45;module</title>
<ellipse fill="none" stroke="black" cx="588.79" cy="-450" rx="87.18" ry="18"/>
<text text-anchor="middle" x="588.79" y="-446.3" font-family="Times,serif" font-size="14.00">entity&#45;ui&#45;module</text>
</g>
<!-- entity&#45;ui&#45;module&#45;&gt;debug&#45;web&#45;module -->
<g id="edge12" class="edge">
<title>entity&#45;ui&#45;module&#45;&gt;debug&#45;web&#45;module</title>
<path fill="none" stroke="black" d="M531.57,-436.4C478.18,-424.65 398.38,-407.09 341.12,-394.48"/>
<polygon fill="black" stroke="black" points="341.58,-391 331.06,-392.27 340.08,-397.84 341.58,-391"/>
</g>
<!-- entity&#45;ui&#45;module&#45;&gt;admin&#45;web&#45;module -->
<g id="edge11" class="edge">
<title>entity&#45;ui&#45;module&#45;&gt;admin&#45;web&#45;module</title>
<path fill="none" stroke="black" d="M600.41,-432.05C606.04,-423.84 612.93,-413.79 619.19,-404.66"/>
<polygon fill="black" stroke="black" points="622.18,-406.5 624.94,-396.28 616.4,-402.54 622.18,-406.5"/>
</g>
<!-- bootstrap&#45;ui&#45;module -->
<g id="node20" class="node">
<title>bootstrap&#45;ui&#45;module</title>
<ellipse fill="none" stroke="black" cx="636.79" cy="-306" rx="104.78" ry="18"/>
<text text-anchor="middle" x="636.79" y="-302.3" font-family="Times,serif" font-size="14.00">bootstrap&#45;ui&#45;module</text>
</g>
<!-- admin&#45;web&#45;module&#45;&gt;bootstrap&#45;ui&#45;module -->
<g id="edge22" class="edge">
<title>admin&#45;web&#45;module&#45;&gt;bootstrap&#45;ui&#45;module</title>
<path fill="none" stroke="black" d="M636.79,-359.7C636.79,-351.98 636.79,-342.71 636.79,-334.11"/>
<polygon fill="black" stroke="black" points="640.29,-334.1 636.79,-324.1 633.29,-334.1 640.29,-334.1"/>
</g>
<!-- spring&#45;security&#45;acl&#45;module&#45;&gt;entity&#45;ui&#45;module -->
<g id="edge13" class="edge">
<title>spring&#45;security&#45;acl&#45;module&#45;&gt;entity&#45;ui&#45;module</title>
<path fill="none" stroke="black" d="M598.58,-503.7C597.14,-495.98 595.42,-486.71 593.83,-478.11"/>
<polygon fill="black" stroke="black" points="597.23,-477.3 591.97,-468.1 590.35,-478.58 597.23,-477.3"/>
</g>
<!-- logging&#45;module -->
<g id="node17" class="node">
<title>logging&#45;module</title>
<ellipse fill="none" stroke="black" cx="400.79" cy="-450" rx="82.59" ry="18"/>
<text text-anchor="middle" x="400.79" y="-446.3" font-family="Times,serif" font-size="14.00">logging&#45;module</text>
</g>
<!-- spring&#45;security&#45;acl&#45;module&#45;&gt;logging&#45;module -->
<g id="edge14" class="edge">
<title>spring&#45;security&#45;acl&#45;module&#45;&gt;logging&#45;module</title>
<path fill="none" stroke="black" d="M555.93,-505.03C525.06,-494.28 484.3,-480.08 452.31,-468.94"/>
<polygon fill="black" stroke="black" points="453.28,-465.58 442.69,-465.59 450.98,-472.19 453.28,-465.58"/>
</g>
<!-- logging&#45;module&#45;&gt;debug&#45;web&#45;module -->
<g id="edge24" class="edge">
<title>logging&#45;module&#45;&gt;debug&#45;web&#45;module</title>
<path fill="none" stroke="black" d="M371.29,-433.12C353.18,-423.37 329.77,-410.76 310.1,-400.17"/>
<polygon fill="black" stroke="black" points="311.54,-396.97 301.07,-395.31 308.22,-403.13 311.54,-396.97"/>
</g>
<!-- file&#45;manager&#45;module -->
<g id="node18" class="node">
<title>file&#45;manager&#45;module</title>
<ellipse fill="none" stroke="black" cx="694.79" cy="-162" rx="105.88" ry="18"/>
<text text-anchor="middle" x="694.79" y="-158.3" font-family="Times,serif" font-size="14.00">file&#45;manager&#45;module</text>
</g>
<!-- file&#45;manager&#45;module&#45;&gt;entity&#45;ui&#45;module -->
<g id="edge17" class="edge">
<title>file&#45;manager&#45;module&#45;&gt;entity&#45;ui&#45;module</title>
<path fill="none" stroke="black" d="M620.46,-174.96C575.2,-183.93 523.52,-197.79 509.79,-216 461.37,-280.24 490.99,-324.99 528.79,-396 535.03,-407.71 544.96,-418.06 554.96,-426.43"/>
<polygon fill="black" stroke="black" points="552.9,-429.27 562.93,-432.71 557.24,-423.77 552.9,-429.27"/>
</g>
<!-- across&#45;imageserver&#45;modules&#45;&gt;user&#45;module -->
<g id="edge33" class="edge">
<title>across&#45;imageserver&#45;modules&#45;&gt;user&#45;module</title>
<path fill="none" stroke="black" d="M698.48,-649.29C658.66,-637.77 604.81,-622.2 565.01,-610.68"/>
<polygon fill="black" stroke="black" points="565.79,-607.27 555.21,-607.85 563.84,-613.99 565.79,-607.27"/>
</g>
<!-- across&#45;imageserver&#45;modules&#45;&gt;file&#45;manager&#45;module -->
<g id="edge32" class="edge">
<title>across&#45;imageserver&#45;modules&#45;&gt;file&#45;manager&#45;module</title>
<path fill="none" stroke="black" d="M758.86,-647.76C767.63,-621.28 782.79,-568.86 782.79,-523 782.79,-523 782.79,-523 782.79,-305 782.79,-264.55 785.38,-250.2 763.79,-216 756.13,-203.87 744.66,-193.45 733.26,-185.13"/>
<polygon fill="black" stroke="black" points="735.25,-182.25 725.03,-179.46 731.28,-188.02 735.25,-182.25"/>
</g>
<!-- admin&#45;web&#45;bootstrap&#45;4 -->
<g id="node23" class="node">
<title>admin&#45;web&#45;bootstrap&#45;4</title>
<ellipse fill="none" stroke="black" cx="636.79" cy="-234" rx="118.08" ry="18"/>
<text text-anchor="middle" x="636.79" y="-230.3" font-family="Times,serif" font-size="14.00">admin&#45;web&#45;bootstrap&#45;4</text>
</g>
<!-- bootstrap&#45;ui&#45;module&#45;&gt;admin&#45;web&#45;bootstrap&#45;4 -->
<g id="edge30" class="edge">
<title>bootstrap&#45;ui&#45;module&#45;&gt;admin&#45;web&#45;bootstrap&#45;4</title>
<path fill="none" stroke="black" d="M636.79,-287.7C636.79,-279.98 636.79,-270.71 636.79,-262.11"/>
<polygon fill="black" stroke="black" points="640.29,-262.1 636.79,-252.1 633.29,-262.1 640.29,-262.1"/>
</g>
<!-- across&#45;hibernate&#45;module -->
<g id="node22" class="node">
<title>across&#45;hibernate&#45;module</title>
<ellipse fill="none" stroke="black" cx="255.79" cy="-234" rx="125.38" ry="18"/>
<text text-anchor="middle" x="255.79" y="-230.3" font-family="Times,serif" font-size="14.00">across&#45;hibernate&#45;module</text>
</g>
<!-- spring&#45;security&#45;module&#45;&gt;across&#45;hibernate&#45;module -->
<g id="edge31" class="edge">
<title>spring&#45;security&#45;module&#45;&gt;across&#45;hibernate&#45;module</title>
<path fill="none" stroke="black" d="M259.55,-287.7C259,-279.98 258.34,-270.71 257.73,-262.11"/>
<polygon fill="black" stroke="black" points="261.22,-261.83 257.01,-252.1 254.23,-262.33 261.22,-261.83"/>
</g>
<!-- across&#45;hibernate&#45;module&#45;&gt;across&#45;autoconfigure -->
<g id="edge26" class="edge">
<title>across&#45;hibernate&#45;module&#45;&gt;across&#45;autoconfigure</title>
<path fill="none" stroke="black" d="M255.3,-215.7C255.08,-207.98 254.81,-198.71 254.56,-190.11"/>
<polygon fill="black" stroke="black" points="258.06,-190 254.28,-180.1 251.07,-190.2 258.06,-190"/>
</g>
<!-- admin&#45;web&#45;bootstrap&#45;4&#45;&gt;file&#45;manager&#45;module -->
<g id="edge27" class="edge">
<title>admin&#45;web&#45;bootstrap&#45;4&#45;&gt;file&#45;manager&#45;module</title>
<path fill="none" stroke="black" d="M650.83,-216.05C657.78,-207.67 666.31,-197.38 674,-188.1"/>
<polygon fill="black" stroke="black" points="676.79,-190.21 680.48,-180.28 671.4,-185.74 676.79,-190.21"/>
</g>
<!-- properties&#45;module -->
<g id="node24" class="node">
<title>properties&#45;module</title>
<ellipse fill="none" stroke="black" cx="474.79" cy="-162" rx="96.38" ry="18"/>
<text text-anchor="middle" x="474.79" y="-158.3" font-family="Times,serif" font-size="14.00">properties&#45;module</text>
</g>
<!-- admin&#45;web&#45;bootstrap&#45;4&#45;&gt;properties&#45;module -->
<g id="edge28" class="edge">
<title>admin&#45;web&#45;bootstrap&#45;4&#45;&gt;properties&#45;module</title>
<path fill="none" stroke="black" d="M599.22,-216.76C575.76,-206.63 545.41,-193.51 520.55,-182.77"/>
<polygon fill="black" stroke="black" points="521.89,-179.54 511.32,-178.79 519.11,-185.97 521.89,-179.54"/>
</g>
<!-- properties&#45;module&#45;&gt;entity&#45;ui&#45;module -->
<g id="edge29" class="edge">
<title>properties&#45;module&#45;&gt;entity&#45;ui&#45;module</title>
<path fill="none" stroke="black" d="M471.62,-180.2C464.93,-222.17 453.93,-331.14 505.79,-396 516.21,-409.03 530.76,-419.83 544.76,-428.21"/>
<polygon fill="black" stroke="black" points="543.41,-431.47 553.84,-433.36 546.87,-425.38 543.41,-431.47"/>
</g>
<!-- across&#45;bamboo&#45;specs -->
<g id="node25" class="node">
<title>across&#45;bamboo&#45;specs</title>
<ellipse fill="none" stroke="black" cx="669.79" cy="-810" rx="108.58" ry="18"/>
<text text-anchor="middle" x="669.79" y="-806.3" font-family="Times,serif" font-size="14.00">across&#45;bamboo&#45;specs</text>
</g>
<!-- across&#45;release&#45;tool -->
<g id="node26" class="node">
<title>across&#45;release&#45;tool</title>
<ellipse fill="none" stroke="black" cx="893.79" cy="-810" rx="97.48" ry="18"/>
<text text-anchor="middle" x="893.79" y="-806.3" font-family="Times,serif" font-size="14.00">across&#45;release&#45;tool</text>
</g>
<!-- across&#45;experimentalmodule -->
<g id="node27" class="node">
<title>across&#45;experimentalmodule</title>
<ellipse fill="none" stroke="black" cx="1148.79" cy="-810" rx="139.18" ry="18"/>
<text text-anchor="middle" x="1148.79" y="-806.3" font-family="Times,serif" font-size="14.00">across&#45;experimentalmodule</text>
</g>
</g>
</svg>
